<?xml version="1.0" encoding="UTF-8"?>
<!DOCTYPE svg PUBLIC "-//W3C//DTD SVG 1.1//EN" "http://www.w3.org/Graphics/SVG/1.1/DTD/svg11.dtd">
<svg xmlns="http://www.w3.org/2000/svg" version="1.1" width="221px" height="105px" style="shape-rendering:geometricPrecision; text-rendering:geometricPrecision; image-rendering:optimizeQuality; fill-rule:evenodd; clip-rule:evenodd" xmlns:xlink="http://www.w3.org/1999/xlink">
<g><path style="opacity:0.999" fill="#262e6c" d="M 40.5,-0.5 C 50.8333,-0.5 61.1667,-0.5 71.5,-0.5C 78.1675,2.64359 84.5009,6.47693 90.5,11C 96.0986,16.7566 101.099,22.9233 105.5,29.5C 108.662,23.1756 111.829,16.8422 115,10.5C 120.523,3.60145 127.689,0.934781 136.5,2.5C 134.371,10.3835 131.537,18.0502 128,25.5C 119.529,44.4415 110.529,63.1082 101,81.5C 93.1729,93.49 82.3396,101.157 68.5,104.5C 61.1667,104.5 53.8333,104.5 46.5,104.5C 15.8886,94.7033 1.72193,73.7033 4,41.5C 8.97082,21.0424 21.1375,7.0424 40.5,-0.5 Z M 48.5,18.5 C 66.2359,16.1204 79.7359,22.4537 89,37.5C 94.6058,57.3535 88.7725,72.8535 71.5,84C 60.8423,87.2901 50.1756,87.2901 39.5,84C 22.2867,72.106 17.4534,56.2727 25,36.5C 30.7689,27.5356 38.6022,21.5356 48.5,18.5 Z"/></g>
<g><path style="opacity:0.998" fill="#262e6c" d="M 166.5,2.5 C 170.5,2.5 174.5,2.5 178.5,2.5C 166.185,32.8036 153.018,62.8036 139,92.5C 133.75,101.214 126.25,104.547 116.5,102.5C 128.599,71.2945 142.099,40.6278 157,10.5C 159.362,6.75528 162.528,4.08861 166.5,2.5 Z"/></g>
<g><path style="opacity:0.998" fill="#262e6b" d="M 208.5,2.5 C 212.167,2.5 215.833,2.5 219.5,2.5C 207.415,32.9018 194.249,62.9018 180,92.5C 174.922,101.12 167.422,104.453 157.5,102.5C 169.728,71.3302 183.228,40.6635 198,10.5C 200.831,6.82094 204.331,4.15427 208.5,2.5 Z"/></g>
</svg>
